<?xml version="1.0" encoding="UTF-8"?>
<svg width="18px" height="18px" viewBox="0 0 18 18" version="1.1" xmlns="http://www.w3.org/2000/svg" xmlns:xlink="http://www.w3.org/1999/xlink">
	<title>Group</title>
	<g id="Page-1" stroke="none" stroke-width="1" fill="none" fill-rule="evenodd">
		<g id="Group">
			<rect id="Rectangle" fill="#64AB7D" x="0" y="0" width="18" height="18"></rect>

			<g id="KB" transform="translate(2.5295, 2.5093)" fill="#FFFFFF" fill-rule="nonzero">
				<path d="M0.212245048,7.45570596 L1.69796038,7.45570596 C1.81469516,7.45570596 1.91020543,7.35984689 1.91020543,7.24268579 L1.91020543,4.63318871 C1.91020543,4.53732963 2.05877696,4.4947256 2.10122597,4.59058467 L3.37469626,7.28528983 C3.41714527,7.3811489 3.49143104,7.45570596 3.65061482,7.45570596 L5.28490169,7.45570596 C5.47592223,7.45570596 5.550208,7.27463882 5.45469773,7.08292067 L3.77796185,3.78110802 C3.70367608,3.6319939 3.69306383,3.57873886 3.77796185,3.42962474 L5.41224872,0.340832273 C5.48653448,0.21302017 5.44408548,0 5.22122818,0 L3.62939032,0 C3.47020653,0 3.42775752,0.0532550426 3.39592076,0.106510085 L2.10122597,2.82251726 C2.05877696,2.91837633 1.91020543,2.8757723 1.91020543,2.77991322 L1.91020543,0.21302017 C1.91020543,0.0958590767 1.81469516,0 1.69796038,0 L0.212245048,0 C0.0955102715,0 0,0.0958590767 0,0.21302017 L0,7.24268579 C0,7.35984689 0.0955102715,7.45570596 0.212245048,7.45570596 Z" id="Path"></path>
			</g>
		</g>
	</g>
</svg>
