<?xml version="1.0" encoding="UTF-8"?>
<svg width="32px" height="32px" viewBox="0 0 32 32" version="1.1" xmlns="http://www.w3.org/2000/svg" xmlns:xlink="http://www.w3.org/1999/xlink">
    <title>Frame</title>
    <g id="Frame" stroke="none" fill="none" fill-rule="nonzero">
        <path d="M7.48449338,1.78064168 L12.2509574,3.32170317 L11.9756478,4.22880423 C11.629189,5.39900858 11.3652022,6.41163935 11.1835618,7.26047276 L26.4559085,7.25875751 L26.4559085,12.2587575 L10.6322462,12.2580611 C10.5796854,13.3574616 10.5520261,14.5283427 10.545576,15.7316542 L10.545576,16.2683458 C10.5520271,17.4718438 10.579694,18.6429014 10.6322706,19.7424501 L26.4559085,19.7411425 L26.4559085,24.7411425 L11.1835618,24.7395272 C11.4106123,25.800569 11.766329,27.1175441 12.2509574,28.6782968 L7.48449338,30.2193583 C6.73741914,27.8133951 6.25283841,25.8741811 6.03141244,24.3689603 C5.70232777,22.1318916 5.56302382,19.3373862 5.54591256,16.3522486 L5.54591256,15.6477514 C5.56302382,12.6626138 5.70232777,9.86810836 6.03141244,7.63103968 C6.25283841,6.12581887 6.73741914,4.18660487 7.48449338,1.78064168 Z" id="Path" fill="#000000"></path>
    </g>
</svg>