<svg xmlns="http://www.w3.org/2000/svg"  viewBox="0 0 24 24" width="24px" height="24px"><path d="M 3 3 L 3 21 L 21 21 L 21 19 L 17 19 L 17 17 L 15 17 L 15 19 L 11 19 L 11 13 L 9 13 L 9 15 L 7 15 L 7 17 L 9 17 L 9 19 L 7 19 L 7 17 L 5 17 L 5 13 L 7 13 L 7 9 L 5 9 L 5 7 L 7 7 L 7 5 L 5 5 L 5 3 L 3 3 z M 7 5 L 9 5 L 9 7 L 11 7 L 11 5 L 15 5 L 15 3 L 7 3 L 7 5 z M 15 5 L 15 7 L 17 7 L 17 5 L 15 5 z M 17 5 L 19 5 L 19 7 L 21 7 L 21 5 L 21 3 L 17 3 L 17 5 z M 19 7 L 17 7 L 17 13 L 19 13 L 21 13 L 21 11 L 19 11 L 19 7 z M 17 13 L 15 13 L 15 15 L 17 15 L 17 13 z M 17 15 L 17 17 L 21 17 L 21 15 L 17 15 z M 15 15 L 13 15 L 13 17 L 15 17 L 15 15 z M 15 7 L 13 7 L 11 7 L 11 9 L 13 9 L 13 11 L 15 11 L 15 7 z M 13 11 L 11 11 L 11 13 L 13 13 L 13 11 z M 11 11 L 11 9 L 9 9 L 9 11 L 11 11 z M 9 9 L 9 7 L 7 7 L 7 9 L 9 9 z"/></svg>