<?xml version="1.0" encoding="UTF-8"?>
<svg width="24px" height="24px" viewBox="0 0 24 24" version="1.1" xmlns="http://www.w3.org/2000/svg" xmlns:xlink="http://www.w3.org/1999/xlink">
    <title>icons8-cog</title>
    <g id="icons8-cog" stroke="none" fill="none" fill-rule="nonzero">
        <path d="M10.8,0 L10.3757808,2.54765628 C9.7916832,2.64805992 9.2270112,2.80329252 8.68359372,3.00468744 L7.03828128,1.00781256 L4.96171872,2.20781256 L5.86640628,4.62421872 C5.4158856,4.99967556 4.99967556,5.4158856 4.62421872,5.86640628 L2.20781256,4.96171872 L1.00781256,7.03828128 L3.00468744,8.68359372 C2.80329252,9.2270112 2.64805992,9.7916832 2.54765628,10.3757808 L0,10.8 L0,13.2 L2.54765628,13.6242192 C2.64805992,14.2083168 2.80329252,14.7729888 3.00468744,15.3164064 L1.00781256,16.9617192 L2.20781256,19.0382808 L4.62421872,18.1335936 C4.99967556,18.5841144 5.4158856,19.0003248 5.86640628,19.3757808 L4.96171872,21.7921872 L7.03828128,22.9921872 L8.68359372,20.9953128 C9.2270112,21.1967076 9.7916832,21.3519396 10.3757808,21.4523436 L10.8,24 L13.2,24 L13.6242192,21.4523436 C14.2083168,21.3519396 14.7729888,21.1967076 15.3164064,20.9953128 L16.9617192,22.9921872 L19.0382808,21.7921872 L18.1335936,19.3757808 C18.5841144,19.0003248 19.0003248,18.5841144 19.3757808,18.1335936 L21.7921872,19.0382808 L22.9921872,16.9617192 L20.9953128,15.3164064 C21.1967076,14.7729888 21.3519396,14.2083168 21.4523436,13.6242192 L24,13.2 L24,10.8 L21.4523436,10.3757808 C21.3519396,9.7916832 21.1967076,9.2270112 20.9953128,8.68359372 L22.9921872,7.03828128 L21.7921872,4.96171872 L19.3757808,5.86640628 C19.0003248,5.4158856 18.5841144,4.99967556 18.1335936,4.62421872 L19.0382808,2.20781256 L16.9617192,1.00781256 L15.3164064,3.00468744 C14.7729888,2.80329252 14.2083168,2.64805992 13.6242192,2.54765628 L13.2,0 L10.8,0 Z" id="Shape" fill="#000000"></path>
    </g>
</svg>